PathFileType	4	(X/Y/Z)	OpenSim_Sub03_CSBaseline_Gyro.trc
DataRate	CameraRate	NumFrames	NumMarkers	Units	OrigDataRate	OrigDataStartFrame	OrigNumFrames
100	100	40	8	m	100	3484	9288
Frame#	Time	torso_imu_offset_imu	pelvis_imu_offset_imu	tibia_r_imu_offset_imu	femur_r_imu_offset_imu	tibia_l_imu_offset_imu	femur_l_imu_offset_imu	toes_r_imu_offset_imu	toes_l_imu_offset_imu
				X1	Y1	Z1	X2	Y2	Z2	X3	Y3	Z3	X4	Y4	Z4	X5	Y5	Z5	X6	Y6	Z6	X7	Y7	Z7	X8		Y8	Z8	

3484	34.83000000	-0.02126997	-0.18377138	-0.11207962	-0.07299120	0.15945477	-0.11820384	-0.17656611	-0.21099847	-0.57622954	-0.35204407	-0.01449795	-0.78735470	0.58052240	-0.18317208	-4.33014653	-0.41428152	0.19247374	-0.45684341	0.09847117	-0.16162746	-0.23860164	0.71619706	4.76280961	-1.08120106
3485	34.84000000	-0.01449293	-0.17342552	-0.09824995	-0.06645190	0.15850806	-0.11335390	-0.18018801	-0.19698131	-0.60065293	-0.35460061	-0.01842226	-0.77032291	0.19139320	-0.21697948	-4.49074388	-0.28007960	0.14976632	-0.32993083	0.09398237	-0.17523578	-0.25788042	0.62718208	4.75327627	-1.24048517
3486	34.85000000	-0.01527330	-0.15948424	-0.09277565	-0.06977598	0.17214722	-0.10068905	-0.20012946	-0.20249714	-0.61729224	-0.38081689	-0.01776532	-0.74361115	-0.40210195	-0.26513655	-4.62212213	-0.12099835	0.08708676	-0.20367295	0.10521084	-0.19556258	-0.28040455	0.50401037	4.72598570	-1.50662649
3487	34.86000000	-0.01376816	-0.14476717	-0.09165780	-0.09465570	0.20632930	-0.08128414	-0.24776890	-0.21395544	-0.62295561	-0.39535216	0.00348364	-0.72775180	-0.99689452	-0.24898195	-4.71598663	0.03227882	0.02396445	-0.06412657	0.10300859	-0.22193502	-0.28140331	0.30772971	4.64216940	-1.84169081
3488	34.87000000	-0.01105281	-0.13383291	-0.09555487	-0.12688238	0.26300229	-0.06826022	-0.25712538	-0.19871799	-0.66244245	-0.40564366	0.02736538	-0.69552078	-1.47448753	-0.17633212	-4.74764598	0.13611785	-0.03383871	0.09058963	0.08780721	-0.24378359	-0.27277287	0.10334679	4.44881987	-2.20543309
3489	34.88000000	-0.00766519	-0.12717236	-0.09788107	-0.16962733	0.30402599	-0.05933159	-0.20825332	-0.20727349	-0.69389256	-0.40639013	0.05841302	-0.66490509	-1.80023539	-0.05155322	-4.74700549	0.17827927	-0.06495994	0.24073426	0.08302155	-0.27905266	-0.27569579	-0.01819029	4.18268846	-2.55720473
3490	34.89000000	-0.00299584	-0.12321913	-0.09831520	-0.20126491	0.32190579	-0.05403151	-0.18287996	-0.19045167	-0.72074857	-0.41294569	0.06115295	-0.63423435	-1.95340840	0.13532479	-4.72669504	0.16532509	-0.05745329	0.39325526	0.07628177	-0.31051380	-0.26712865	-0.04744821	3.92151108	-2.84154325
3491	34.90000000	0.00490247	-0.10288737	-0.10221636	-0.22818211	0.31981709	-0.05680650	-0.16696056	-0.16719838	-0.74671406	-0.38817939	0.07684641	-0.61515547	-1.83298092	0.30649622	-4.62829064	0.06358432	-0.02784546	0.53663511	0.06519210	-0.34574699	-0.26230213	-0.08639119	3.69923288	-3.00169029
3492	34.91000000	0.00353214	-0.08728283	-0.10499878	-0.26192142	0.31381972	-0.05032969	-0.15182781	-0.16267119	-0.76044124	-0.35534260	0.10699039	-0.61258741	-1.48542599	0.41884239	-4.52561543	-0.13206186	0.01174848	0.66695989	0.05351790	-0.37185717	-0.27991822	-0.18870355	3.54198304	-3.01746028
3493	34.92000000	-0.00491106	-0.07147828	-0.10602307	-0.28464455	0.29155458	-0.04409451	-0.13880282	-0.15266806	-0.79261101	-0.34351246	0.13039526	-0.58512264	-1.10366464	0.50475712	-4.38665238	-0.33612032	-0.00442887	0.76889631	0.07128935	-0.40728033	-0.32106461	-0.21025497	3.45146008	-2.88475203
3494	34.93000000	-0.01806297	-0.05597747	-0.09878971	-0.32779729	0.23801280	-0.03389799	-0.19960201	-0.15966670	-0.81458491	-0.38201732	0.16923276	-0.56222780	-0.69416427	0.55290123	-4.13833544	-0.45282973	-0.08846117	0.84248967	0.09543436	-0.44773558	-0.35309123	-0.08488560	3.33064870	-2.58464316
3495	34.94000000	-0.04231627	-0.04318024	-0.10082377	-0.38338757	0.19668415	-0.02544471	-0.29721535	-0.15471816	-0.82277488	-0.48492019	0.19479645	-0.52339557	-0.36193636	0.50450573	-3.85659643	-0.48634291	-0.18966922	0.89947498	0.09484359	-0.47333604	-0.37684666	0.06430394	3.13815414	-2.13261852
3496	34.95000000	-0.07606966	-0.02636221	-0.11118901	-0.42991626	0.19316553	-0.03848433	-0.35018735	-0.15008469	-0.86043095	-0.56584925	0.21551624	-0.49277873	-0.22146525	0.38095109	-3.66929608	-0.47734817	-0.25242437	0.96683211	0.10268013	-0.51568761	-0.42298371	0.14510117	2.94932558	-1.58071983
3497	34.96000000	-0.11096151	-0.00369356	-0.11924432	-0.47551954	0.19549702	-0.05267952	-0.34289477	-0.15476211	-0.89328095	-0.61689155	0.21993495	-0.43833850	-0.10511413	0.26865556	-3.51783356	-0.48762601	-0.24914628	1.03773229	0.09980903	-0.56719481	-0.45645570	0.17766455	2.70586609	-1.03249434
3498	34.97000000	-0.12927508	0.01916012	-0.13055097	-0.53174952	0.20254626	-0.07630309	-0.34434052	-0.18178983	-0.92933410	-0.63133688	0.25675541	-0.40399004	-0.19385700	0.03723493	-3.19352240	-0.51619586	-0.21691380	1.09973850	0.08838265	-0.64338076	-0.47030000	0.34873330	2.45225522	-0.63657796
3499	34.98000000	-0.13935674	0.03888199	-0.15067288	-0.57391311	0.18931540	-0.09229679	-0.40761151	-0.18475765	-0.96138428	-0.65366568	0.30640122	-0.38342554	-0.17358340	-0.07275068	-2.74953585	-0.55827407	-0.17704939	1.15974248	0.06841706	-0.73838636	-0.47875111	0.57833961	2.23160697	-0.50842739
3500	34.99000000	-0.15648559	0.06033724	-0.17884425	-0.60282333	0.15230332	-0.10441668	-0.44275745	-0.17570793	-0.99835205	-0.69070967	0.32758060	-0.33782642	-0.14973510	-0.04433242	-2.27081378	-0.61453305	-0.14920142	1.15227722	0.05979701	-0.83418519	-0.49617729	0.63015581	1.96877830	-0.60183516
3501	35	-0.16406567	0.07002864	-0.19458016	-0.61000195	0.09778063	-0.11958941	-0.46159712	-0.17540340	-1.03861249	-0.68140804	0.38072169	-0.30751424	-0.15730413	-0.05103780	-1.78414421	-0.70552107	-0.15798711	1.04903879	0.05240201	-0.92658887	-0.49438032	0.50697210	1.44110421	-0.77656279
3502	35.01000000	-0.17146717	0.07918264	-0.19730005	-0.58796301	0.04110985	-0.13507605	-0.46799709	-0.17377670	-1.10288416	-0.67394602	0.42761346	-0.30214997	0.00325165	-0.05649713	-1.26312322	-0.79178654	-0.18569206	0.89630104	0.03225391	-1.01831549	-0.48308497	0.35210037	0.71522737	-0.87688043
3503	35.02000000	-0.17888836	0.08727191	-0.18916888	-0.53866443	-0.01996937	-0.14613366	-0.45850806	-0.15219488	-1.16615089	-0.62990022	0.45559983	-0.27585670	0.31145016	-0.14648869	-0.57063178	-0.75131611	-0.22613910	0.71918505	0.03119334	-1.13649882	-0.48528507	0.23460800	-0.05351762	-0.73641647
3504	35.03000000	-0.19245607	0.10539687	-0.16551269	-0.47116006	-0.08736589	-0.15321965	-0.40152273	-0.14633494	-1.22803476	-0.50983393	0.47468134	-0.24182734	0.31557958	-0.21612891	0.18858858	-0.55932323	-0.29151034	0.56974156	0.03484825	-1.25317384	-0.51195453	-0.24296433	-1.00208476	-0.34030321
3505	35.04000000	-0.19928024	0.12616138	-0.15354001	-0.39252356	-0.13999696	-0.16376980	-0.36549013	-0.15250756	-1.29710293	-0.33315691	0.47319126	-0.21685905	-0.13830906	-0.26097751	0.84334574	-0.31775014	-0.33554507	0.44450767	0.03188131	-1.37824526	-0.55979562	-0.86599480	-2.06669583	0.21348361
3506	35.05000000	-0.21081696	0.14736388	-0.13507173	-0.33816566	-0.18905572	-0.17394502	-0.36693642	-0.16063992	-1.36926423	-0.15029051	0.46676242	-0.17559363	-0.68761971	-0.42496232	1.38301000	-0.16761923	-0.29359759	0.30497192	0.03947802	-1.53961431	-0.61453482	-0.13110759	-2.86464319	0.57988857
3507	35.06000000	-0.21494658	0.15988588	-0.12516080	-0.31218302	-0.21048364	-0.19198454	-0.38473660	-0.16883677	-1.44556382	-0.00268209	0.45852583	-0.11422841	-0.89871816	-0.65961448	1.67489029	-0.09073291	-0.23685413	0.19142604	0.00594684	-1.71714803	-0.69045550	0.22675801	-2.82878013	0.62041882
3508	35.07000000	-0.21081693	0.15410284	-0.10578562	-0.28709941	-0.19622822	-0.21091412	-0.42802200	-0.18526517	-1.51587866	0.12276654	0.45060875	-0.03929356	-0.15190282	-0.86161590	1.18881394	0.08342293	-0.33105265	0.16387975	0.02716459	-1.93709903	-0.79671800	-1.39225677	-2.12116209	0.64887260
3509	35.08000000	-0.21072092	0.15421466	-0.08950045	-0.26240365	-0.18681990	-0.23641137	-0.44633138	-0.21116217	-1.61402327	0.21580991	0.43809934	0.05107842	0.30498867	-0.69893569	0.29211332	0.36148522	-0.60822468	0.30539322	0.07440313	-2.19792961	-0.94464566	-1.08153142	-2.62340429	0.71680832
3510	35.09000000	-0.20258068	0.18887796	-0.04968716	-0.20334243	-0.20492669	-0.28398357	-0.47121670	-0.24757305	-1.68118448	0.23189408	0.43559757	0.15284754	-0.65338857	-0.23150219	0.24095167	0.66885038	-0.87142894	0.56127607	0.04321325	-2.47488189	-1.09295332	-0.34910778	-2.97049644	0.77972504
3511	35.10000000	-0.17363957	0.23642450	-0.01399521	-0.10613122	-0.22193195	-0.33497286	-0.53270474	-0.30636756	-1.73762140	0.18142317	0.45120997	0.27059618	-1.22818036	-0.23054712	0.75962915	0.90039508	-0.99222647	0.79913403	-0.00419425	-2.73272106	-1.25655105	-0.38879193	-2.41098400	0.88430632
3512	35.11000000	-0.13210306	0.27672893	0.00959487	-0.01093774	-0.24581312	-0.37957014	-0.66408007	-0.35035498	-1.82988300	0.10580592	0.49464154	0.41543091	-1.15162055	-0.41488761	0.94297591	0.92397449	-0.81962686	0.86773085	0.02255486	-2.99507515	-1.44688102	-0.92623116	-1.44596858	1.10093588
3513	35.12000000	-0.09549704	0.29743332	0.02395607	0.09204177	-0.25537443	-0.39959550	-0.79539093	-0.39622508	-1.91125047	0.03846530	0.57908951	0.61609746	-1.78676998	-0.41067824	1.05238466	0.79742808	-0.37807875	0.71645463	0.11048233	-3.25394972	-1.67303774	-0.88530210	-1.12772342	0.96801163
3514	35.13000000	-0.06894181	0.31931503	0.02979305	0.18329321	-0.25035064	-0.38362374	-0.89118079	-0.42607058	-2.01420973	0.01035032	0.64170509	0.85944422	-2.59461780	-0.45079508	1.24642705	0.75017803	-0.01307359	0.50823584	0.27222566	-3.58745609	-1.91646298	-1.27229513	-0.81737828	0.65592286
3515	35.14000000	-0.04447600	0.33361904	0.04784360	0.23138273	-0.22069110	-0.35203806	-0.94514153	-0.44185167	-2.11678701	0.03360463	0.68123287	1.11334625	-2.43626340	-0.50726295	1.27709038	0.77054205	0.09085759	0.38610634	0.66602638	-4.02761035	-2.22361545	-1.12177305	-0.19272000	0.45836474
3516	35.15000000	-0.02610001	0.33837195	0.06343903	0.24675085	-0.17969482	-0.32653677	-0.98901857	-0.43481335	-2.18768434	0.12342260	0.74070911	1.32732480	-1.37623049	-0.53560530	1.13715133	0.67609364	-0.14904996	0.37704958	1.20692500	-4.57694576	-2.53575454	-0.71069512	-0.12941388	0.37187651
3517	35.16000000	-0.02164251	0.33139121	0.07528799	0.22469670	-0.13677304	-0.33150807	-0.98713931	-0.44395568	-2.26072839	0.18513244	0.75465504	1.52024230	-0.28082939	-0.46090771	1.16216223	0.39981317	-0.61436421	0.44093448	1.39399931	-5.00460587	-2.76879149	-0.42659724	-0.00188805	0.19948242
3518	35.17000000	-0.02884695	0.29746909	0.09013983	0.16164583	-0.09118470	-0.37133174	-0.95194205	-0.51347606	-2.28346709	0.14677706	0.73470712	1.70332185	0.59188016	-0.42616001	1.35533567	0.00713770	-0.91051665	0.52218030	1.31227057	-5.08715623	-2.89204435	-0.25698997	0.05136235	0.11041204
3519	35.18000000	-0.03678365	0.25087793	0.09990422	0.08578094	-0.05405035	-0.43967489	-0.88605010	-0.60904926	-2.28735147	0.03427147	0.74486180	1.87213423	1.11000205	-0.54575782	1.34414513	-0.20528375	-0.84510625	0.60137340	1.04784835	-5.11626395	-2.95389126	-0.14566393	0.02599892	0.05059485
3520	35.19000000	-0.04103704	0.19926377	0.10281945	0.02775726	-0.02995467	-0.49872202	-0.83087367	-0.71721084	-2.28248587	-0.19832556	0.75063190	1.98101835	0.99109043	-0.46878256	1.17934775	-0.14915275	-0.56379259	0.68061150	0.55052692	-4.99757572	-2.99787585	-0.12699120	0.03293860	0.04780138
3521	35.20000000	-0.04917125	0.15347880	0.09783185	0.00620923	0.00087528	-0.48952704	-0.78584197	-0.77679075	-2.20070976	-0.46018395	0.68520995	2.05008388	0.31325101	-0.26542387	1.05681301	0.04205208	-0.29980137	0.77668606	0.47561342	-4.90575174	-3.06416060	-0.14290568	0.04733661	0.03631807
3522	35.21000000	-0.05582635	0.10955749	0.09610088	-0.00267877	0.03127378	-0.45368123	-0.70802491	-0.81522862	-2.13237178	-0.68548764	0.57281748	2.07848852	-0.39219507	-0.35950609	0.94954302	0.30395659	-0.19916021	0.82498271	0.03015091	-4.80669081	-3.00637849	-0.15220863	0.06263726	0.02928166
3523	35.22000000	-0.06249966	0.07536746	0.09360016	-0.02803479	0.06295886	-0.38509088	-0.71547706	-0.88104259	-2.06446801	-0.84362646	0.41870243	2.00937424	-0.77332849	-0.41199289	0.88350592	0.51379131	-0.30446453	0.81863143	-0.52624440	-4.58678274	-2.87772177	-0.13038841	0.05377212	0.02077387
